<svg xmlns="http://www.w3.org/2000/svg" width="256" height="256"><path fill="#1976D2" fill-opacity=".016" fill-rule="evenodd" d="M0 128.004v128.004l128.25-.254 128.25-.254.254-127.75L257.008 0H0zm.485.496c0 70.4.119 99.053.265 63.672s.146-92.98 0-128S.485 58.1.485 128.5"/><path fill="#1976D2" fill-opacity=".171" fill-rule="evenodd" d="M126.4 4.4c-4.782 4.782-4.737 9.463.136 14.336 3.367 3.367 3.791 3.51 8.835 2.989l5.298-.546 3.637 6.16 3.637 6.161-16.721.572c-19.743.675-24.312 2.109-31.629 9.932-8.1 8.659-8 8.111-8.379 46.246L90.879 124H181l.043 22.75.044 22.75 17.971-18.34c9.884-10.088 19.249-20.213 20.812-22.5 5.571-8.156 5.63-8.718 5.63-53.16v-41l-28.215-.5-28.215-.5 3.481-6.176 3.481-6.176 5.33.55c4.9.506 5.603.305 8.733-2.492 2.952-2.637 3.405-3.663 3.405-7.706 0-4.004-.462-5.077-3.266-7.582-6.875-6.143-16.703-2.295-17.954 7.03-.365 2.724-2.624 7.957-5.829 13.5-4.629 8.009-5.555 9.052-8.038 9.052-2.467 0-3.406-1.029-7.758-8.5-3.029-5.2-5.269-10.441-5.769-13.5-1.685-10.296-11.515-14.071-18.486-7.1m-.127 61.127c-3.239 3.239-3.485 3.897-3.016 8.062.316 2.803 1.38 5.461 2.787 6.958 4.699 5.002 13.435 3.995 17.071-1.967 2.269-3.722 2.38-6.722.391-10.569-2.093-4.048-5.303-6.011-9.829-6.011-3.103 0-4.581.704-7.404 3.527m38.553-1.815c-5.404 3.352-6.496 11.15-2.266 16.177 7.614 9.049 21.886 1.22 18.483-10.139-2.014-6.725-10.198-9.772-16.217-6.038M54.952 106.656c-13.63 13.835-20.291 21.358-22 24.844l-2.452 5-.29 42.75-.291 42.75h56.98l-4.078 7.072c-2.9 5.031-4.386 6.763-5.149 6-.59-.59-3.042-1.072-5.449-1.072C65.914 234 62 238.02 62 244.5c0 3.81.53 5.184 2.923 7.577 6.39 6.39 18.077 2.174 18.077-6.521 0-2.559 1.661-6.474 5.75-13.556 7.794-13.499 8.705-13.502 16.5-.055 4.007 6.913 5.75 10.979 5.75 13.411 0 5.344 4.75 9.644 10.654 9.644 3.64 0 5.058-.558 7.423-2.923 4.182-4.182 4.182-10.972 0-15.154-2.34-2.34-3.796-2.923-7.3-2.923-2.407 0-4.86.483-5.45 1.073-.764.764-2.117-.794-4.7-5.412-1.995-3.567-3.627-6.698-3.627-6.958s7.537-.682 16.75-.938c13.009-.362 17.643-.858 20.75-2.22 6.71-2.941 12.124-8.104 15.424-14.71l3.076-6.154V132H75.038l-.269-22.594-.269-22.595zm12.362 67.294C63.368 176.356 62 178.815 62 183.5c0 4.676 1.35 7.112 4.98 8.99 5.334 2.758 12.611 1.012 15.09-3.621 1.463-2.733 1.446-8.037-.034-10.801-1.413-2.642-6.793-6.061-9.536-6.061-1.1 0-3.434.875-5.186 1.943m49-.051c-4.002 2.505-5.32 4.942-5.292 9.785.05 8.51 9.033 13.019 16.667 8.364 5.713-3.483 6.393-11.679 1.368-16.493-3.722-3.566-8.665-4.209-12.743-1.656"/><path fill="#1976D2" fill-opacity=".394" fill-rule="evenodd" d="M128.775 2.559C125.237 4.479 124 6.919 124 11.98c0 6.992 6.812 11.662 13.39 9.179 2.354-.888 3.208-.867 3.796.097.418.684 2.373 4.057 4.345 7.494l3.585 6.25h-16.521c-14.016 0-17.321.3-21.807 1.98-7.415 2.776-12.147 7.049-15.717 14.194L92 57.319V124h89l.028 22.25.027 22.25 18.876-19.093c12.978-13.127 19.765-20.782 21.723-24.5l2.846-5.407.3-42.25.3-42.25h-28.55c-15.702 0-28.55-.185-28.55-.412s1.855-3.629 4.121-7.561c3.179-5.513 4.494-6.99 5.75-6.459 3.526 1.492 6.275 1.614 9.184.409 7.388-3.06 7.898-14.882.8-18.552-3.53-1.825-6.225-1.802-9.875.085-3.546 1.834-4.965 4.283-5.026 8.674-.031 2.177-2.054 6.751-5.892 13.316-5.208 8.908-6.153 10-8.656 10-2.509 0-3.432-1.075-8.585-10-3.176-5.5-5.785-11.216-5.797-12.703-.074-8.413-7.963-13.192-15.249-9.238m.725 59.827c-3.688 1.607-5.32 3.499-6.467 7.498C120.915 77.269 126.147 84 134.004 84c3.439 0 4.81-.614 7.596-3.4 2.831-2.831 3.4-4.133 3.4-7.777 0-5.223-1.729-7.992-6.367-10.193-4.082-1.937-5.182-1.966-9.133-.244m35.799.574C161.854 65.06 159 69.609 159 73c0 2.935 2.57 7.585 5.217 9.439 1.225.859 4.198 1.561 6.606 1.561 3.644 0 4.946-.569 7.777-3.4 2.625-2.625 3.4-4.232 3.4-7.05 0-5.056-2.288-8.984-6.357-10.915-4.465-2.119-6.439-2.057-10.344.325M54.451 108.169c-10.943 11.105-19.814 20.971-20.847 23.185-3.053 6.549-3.644 15.861-3.369 53.146l.265 36 28.25.266c16.577.155 28.25.65 28.25 1.196 0 .729-6.342 12.349-7.575 13.88-.151.188-1.808-.213-3.681-.89-4.59-1.66-8.611-.227-11.575 4.125-5.589 8.205 2.754 18.564 12.091 15.014 3.351-1.274 6.719-6.541 6.772-10.591.024-1.824 2.281-6.723 5.758-12.5 8.012-13.308 8.889-13.297 16.651.207 3.479 6.051 5.846 11.323 5.744 12.793-.096 1.375.724 3.974 1.821 5.775 5.461 8.964 18.494 5.206 18.494-5.333 0-7.75-6.909-11.914-15.01-9.046-1.714.607-2.563-.31-5.75-6.212-2.057-3.808-3.74-7.17-3.74-7.473s7.987-.701 17.75-.886c16.992-.324 17.967-.452 22.84-3.017 5.949-3.132 10.849-8.369 13.804-14.757 1.982-4.284 2.124-6.474 2.418-37.301l.312-32.75h-44.562c-34.908 0-44.592-.271-44.702-1.25-.077-.687-.415-10.624-.75-22.081l-.61-20.831zm10.66 66.391c-5.191 4.368-5.423 11.855-.519 16.759 7.701 7.701 20.544 1.192 19.088-9.673-1.189-8.863-11.693-12.872-18.569-7.086m50.652-.995c-3.291 1.786-5.763 6.226-5.763 10.351 0 4.084 5.114 9.827 9.479 10.646 7.478 1.403 14.234-5.208 13.201-12.916-1.078-8.032-9.549-12.079-16.917-8.081"/><path fill="#1976D2" fill-opacity=".151" fill-rule="evenodd" d="M128.75 3.08c-5.305 3.09-5.848 12.115-.963 15.978 2.281 1.804 3.541 2.049 7.916 1.54l5.204-.605 4.133 6.958c2.274 3.827 3.843 7.429 3.488 8.004-.405.655-6.522 1.045-16.406 1.045-18.283 0-23.614 1.161-29.855 6.503-2.28 1.952-5.41 6.124-6.956 9.273L92.5 57.5v65l44.104.26 44.104.261.646 7.64c.355 4.202.646 14.017.646 21.809v14.169l16.518-16.598c17.696-17.781 22.802-24.077 24.729-30.487.883-2.937 1.164-14.664 1.022-42.554-.108-21.175-.213-39.062-.233-39.75-.028-.969-6.228-1.25-27.567-1.25-22.815 0-27.625-.242-28.075-1.415-.298-.778 1.158-4.371 3.236-7.985l3.778-6.569 5.148.605c6.366.748 9.969-1.256 11.368-6.324 2.753-9.97-9.001-16.723-16.023-9.206-2.075 2.221-2.901 4.118-2.901 6.66 0 4.8-10.447 23.057-13.654 23.862-1.228.308-2.655.299-3.172-.021-.517-.319-3.693-5.299-7.057-11.066C144.901 17.314 143 13.004 143 10.673c0-4.914-3.794-8.682-8.702-8.643-2.089.017-4.586.489-5.548 1.05m-.987 59.485C124.304 64.442 122 68.841 122 73.568c0 2.927.784 4.451 3.882 7.55 3.229 3.228 4.563 3.882 7.924 3.882 7.236 0 13.289-7.738 11.702-14.962-.356-1.625-2.208-4.323-4.113-5.996-3.928-3.449-8.988-3.997-13.632-1.477m34.808 1.803c-7.882 7.434-2.677 20.643 8.129 20.628 1.54-.002 4.29-.912 6.11-2.022C186.939 76.799 182.398 61 170.494 61c-3.567 0-4.995.607-7.923 3.368M52 117.123c-2.475.343-4.764.474-5.087.292-.324-.183-2.272 1.392-4.329 3.499-2.889 2.959-3.667 4.487-3.413 6.709.479 4.19 4.692 5.253 21.079 5.321L74 133v-6.566c0-10.008-.611-10.646-9.824-10.257-4.222.177-9.701.604-12.176.946"/></svg>